# xmcd CD database file
#
# Track frame offsets:
#	150
#	15893
#	32515
#	50268
#	63428
#	81136
#	99024
#	115237
#	135339
#	149244
#	164509
#	182011
#	198980
#	214237
#	228475
#	245636
#	262899
#	279247
#	300808
#	314388
#
# Disc length: 4417 seconds
#
# Revision: 0
# Processed by: cddbd v1.5.1PL2 Copyright (c) Steve Scherf et al.
# Submitted via: CDex 1.51
#
DISCID=06113f14
DTITLE=Bruno and Marrone - Bruno e Morrone 20 Mais Vol:30
DYEAR=2006
DGENRE=Country
TTITLE0=Que pesca que nada
TTITLE1=Porque choras
TTITLE2=Choram as rosas
TTITLE3=Pra la que eu vou
TTITLE4=Vou te amar de mais
TTITLE5=Vai dar namoro
TTITLE6=Doce desejo
TTITLE7=Se não tivesse ido
TTITLE8=Credo em cruz ave maria
TTITLE9=Cuida do nosso amor
TTITLE10=Inevitavel
TTITLE11=Deixa
TTITLE12=Faz, mas faz
TTITLE13=Apaziguar
TTITLE14=É você que eu amo
TTITLE15=Então pode ir
TTITLE16=Vai sofrer para lá
TTITLE17=Será
TTITLE18=A culpa é sua
TTITLE19=Ligação Urbano
EXTD=YEAR: 2006
EXTT0=
EXTT1=
EXTT2=
EXTT3=
EXTT4=
EXTT5=
EXTT6=
EXTT7=
EXTT8=
EXTT9=
EXTT10=
EXTT11=
EXTT12=
EXTT13=
EXTT14=
EXTT15=
EXTT16=
EXTT17=
EXTT18=
EXTT19=
PLAYORDER=
